<svg xmlns="http://www.w3.org/2000/svg" width="220" height="220" viewBox="0 0 220 220">
  <rect width="220" height="220" fill="#F2EDE4"/>
  <!-- QR finder patterns -->
  <rect x="20" y="20" width="60" height="60" rx="4" fill="none" stroke="#2B2B2B" stroke-width="6"/>
  <rect x="32" y="32" width="36" height="36" rx="2" fill="#2B2B2B"/>
  <rect x="140" y="20" width="60" height="60" rx="4" fill="none" stroke="#2B2B2B" stroke-width="6"/>
  <rect x="152" y="32" width="36" height="36" rx="2" fill="#2B2B2B"/>
  <rect x="20" y="140" width="60" height="60" rx="4" fill="none" stroke="#2B2B2B" stroke-width="6"/>
  <rect x="32" y="152" width="36" height="36" rx="2" fill="#2B2B2B"/>
  <!-- Data modules -->
  <rect x="100" y="20" width="8" height="8" fill="#2B2B2B"/>
  <rect x="116" y="20" width="8" height="8" fill="#2B2B2B"/>
  <rect x="100" y="36" width="8" height="8" fill="#2B2B2B"/>
  <rect x="108" y="44" width="8" height="8" fill="#2B2B2B"/>
  <rect x="100" y="100" width="8" height="8" fill="#2B2B2B"/>
  <rect x="116" y="108" width="8" height="8" fill="#2B2B2B"/>
  <rect x="124" y="100" width="8" height="8" fill="#2B2B2B"/>
  <rect x="140" y="108" width="8" height="8" fill="#2B2B2B"/>
  <rect x="148" y="100" width="8" height="8" fill="#2B2B2B"/>
  <rect x="140" y="116" width="8" height="8" fill="#2B2B2B"/>
  <rect x="108" y="116" width="8" height="8" fill="#2B2B2B"/>
  <rect x="156" y="116" width="8" height="8" fill="#2B2B2B"/>
  <rect x="164" y="108" width="8" height="8" fill="#2B2B2B"/>
  <rect x="172" y="100" width="8" height="8" fill="#2B2B2B"/>
  <rect x="100" y="140" width="8" height="8" fill="#2B2B2B"/>
  <rect x="116" y="140" width="8" height="8" fill="#2B2B2B"/>
  <rect x="124" y="148" width="8" height="8" fill="#2B2B2B"/>
  <rect x="100" y="156" width="8" height="8" fill="#2B2B2B"/>
  <rect x="116" y="164" width="8" height="8" fill="#2B2B2B"/>
  <rect x="140" y="140" width="8" height="8" fill="#2B2B2B"/>
  <rect x="148" y="156" width="8" height="8" fill="#2B2B2B"/>
  <rect x="164" y="140" width="8" height="8" fill="#2B2B2B"/>
  <rect x="172" y="148" width="8" height="8" fill="#2B2B2B"/>
  <rect x="164" y="164" width="8" height="8" fill="#2B2B2B"/>
  <!-- Center logo hint -->
  <text x="110" y="118" font-family="Georgia" font-size="10" fill="#2C6E6A" text-anchor="middle" opacity="0.6">UPI</text>
</svg>
